<svg
    version="1.1" id="Layer_1"
    xmlns="http://www.w3.org/2000/svg" xmlns:xlink="http://www.w3.org/1999/xlink"
    viewBox="0 0 64 64" xml:space="preserve"
    width="64" height="64"
>
    <style type="text/css">
        .st0{fill:#4C4C4C;}
        .st1{fill:#D32F2F;}
        .st2{fill:none;stroke:#D32F2F;stroke-width:4;stroke-linecap:round;stroke-linejoin:round;stroke-miterlimit:10;}
    </style>
    <g id="No_Mobile_or_Tablet">
        <path class="st0" d="M46,50H18c-1.1,0-2-0.9-2-2V16c0-1.1,0.9-2,2-2h28c1.1,0,2,0.9,2,2v32C48,49.1,47.1,50,46,50z M20,16v32h24V16H20z"/>
        <path class="st0" d="M62,56H2c-1.1,0-2-0.9-2-2v-2c0-1.1,0.9-2,2-2h60c1.1,0,2,0.9,2,2v2C64,55.1,63.1,56,62,56z"/>
        <path class="st0" d="M14,48H4c-1.1,0-2-0.9-2-2V18c0-1.1,0.9-2,2-2h10c1.1,0,2,0.9,2,2v28C16,47.1,15.1,48,14,48z M6,18v28h8V18H6z"/>
        <path class="st0" d="M60,48h-8c-1.1,0-2-0.9-2-2V18c0-1.1,0.9-2,2-2h8c1.1,0,2,0.9,2,2v28C62,47.1,61.1,48,60,48z M54,18v28h6V18H54z"/>
        <line class="st2" x1="2" y1="2" x2="62" y2="62"/>
    </g>
</svg>
